<svg version="1.1" xmlns="http://www.w3.org/2000/svg" viewBox="0 0 829.1922404930276 733.1880672632207" width="1658.3844809860552" height="1466.3761345264413">
  <!-- svg-source:excalidraw -->
  
  <defs>
    <style class="style-fonts">
      @font-face {
        font-family: "Virgil";
        src: url("https://excalidraw.com/Virgil.woff2");
      }
      @font-face {
        font-family: "Cascadia";
        src: url("https://excalidraw.com/Cascadia.woff2");
      }
      @font-face {
        font-family: "Assistant";
        src: url("https://excalidraw.com/Assistant-Regular.woff2");
      }
    </style>
    
  </defs>
  <rect x="0" y="0" width="829.1922404930276" height="733.1880672632207" fill="#ffffff"></rect><g stroke-linecap="round" transform="translate(99.24723519657368 76.86332502893549) rotate(0 152.6894614439418 131.9436107042759)"><path d="M32 0 C81.3 -1.4, 132.65 1.61, 273.38 0 C297.36 -0.34, 304.82 11.93, 305.38 32 C303.79 101.6, 306.24 171.44, 305.38 231.89 C306.96 254.81, 294.55 265.76, 273.38 263.89 C179.56 260.09, 88.4 263.7, 32 263.89 C7.28 262.16, -1.54 254.24, 0 231.89 C-3.25 190.19, -2.92 148.89, 0 32 C-2.4 7.44, 14.12 3.42, 32 0" stroke="none" stroke-width="0" fill="#a5d8ff"></path><path d="M32 0 C109.48 1.11, 185.6 3.24, 273.38 0 M32 0 C119.82 -0.15, 206.41 1.11, 273.38 0 M273.38 0 C293.47 -1.75, 307.04 10.03, 305.38 32 M273.38 0 C293.38 1.8, 304.22 8.63, 305.38 32 M305.38 32 C304.69 96.1, 304.51 158.73, 305.38 231.89 M305.38 32 C306.89 93.57, 307.04 155.4, 305.38 231.89 M305.38 231.89 C305.99 254.59, 294.93 264.25, 273.38 263.89 M305.38 231.89 C307.47 253.54, 294.99 264.01, 273.38 263.89 M273.38 263.89 C201.54 266.23, 129.41 266.59, 32 263.89 M273.38 263.89 C203.91 264.15, 132.09 264.53, 32 263.89 M32 263.89 C8.68 265.13, -1.62 252.07, 0 231.89 M32 263.89 C12.12 264.28, -1.95 251.63, 0 231.89 M0 231.89 C-1.04 165.2, -0.91 96.24, 0 32 M0 231.89 C0.74 173.55, 0.77 116.66, 0 32 M0 32 C-1.31 11.59, 9.08 -0.65, 32 0 M0 32 C1.75 12.02, 11.99 -0.56, 32 0" stroke="#1e1e1e" stroke-width="2" fill="none"></path></g><g transform="translate(187.48357164051572 196.8069357332114) rotate(0 64.453125 12)"><text x="64.453125" y="19.3125" font-family="Cascadia, Segoe UI Emoji" font-size="20px" fill="#1e1e1e" text-anchor="middle" style="white-space: pre;" direction="ltr" dominant-baseline="alphabetic">II Quadrant</text></g><g stroke-linecap="round" transform="translate(435.7675582519332 75.01795103843472) rotate(0 152.6894614439418 131.9436107042759)"><path d="M32 0 C124.5 -0.63, 214.73 0.09, 273.38 0 C297.08 -2.58, 304.45 14.03, 305.38 32 C304.15 84.4, 301.14 141.8, 305.38 231.89 C304.75 251.62, 293.48 260.75, 273.38 263.89 C209.94 264.28, 148 266.95, 32 263.89 C7.96 265.02, -3.03 250.74, 0 231.89 C1.6 166.73, 1.8 108.68, 0 32 C-1.96 12.54, 9.15 3.58, 32 0" stroke="none" stroke-width="0" fill="#fcc2d7"></path><path d="M32 0 C89.97 -2.76, 150.44 -0.72, 273.38 0 M32 0 C83.03 0.78, 132.99 1.3, 273.38 0 M273.38 0 C294.24 1.42, 303.71 11.39, 305.38 32 M273.38 0 C293.39 -1.8, 303.62 8.76, 305.38 32 M305.38 32 C304.29 82.35, 308.19 130.97, 305.38 231.89 M305.38 32 C304.75 92.02, 305.03 150.8, 305.38 231.89 M305.38 231.89 C305.34 254.26, 294.87 264.41, 273.38 263.89 M305.38 231.89 C304.44 253.88, 294.91 264.95, 273.38 263.89 M273.38 263.89 C214.41 266.49, 158.34 266.37, 32 263.89 M273.38 263.89 C204.52 264.27, 136.12 264.49, 32 263.89 M32 263.89 C8.68 265.13, -1.7 254.81, 0 231.89 M32 263.89 C9.75 266.05, 0.32 251.1, 0 231.89 M0 231.89 C1.32 173.42, -0.79 116.98, 0 32 M0 231.89 C1.11 174.44, 1.7 117.51, 0 32 M0 32 C-0.54 11.91, 10.35 -0.04, 32 0 M0 32 C-1.68 11.46, 11.46 -2.24, 32 0" stroke="#1e1e1e" stroke-width="2" fill="none"></path></g><g transform="translate(529.863269695875 194.96156174271061) rotate(0 58.59375 12)"><text x="58.59375" y="19.3125" font-family="Cascadia, Segoe UI Emoji" font-size="20px" fill="#1e1e1e" text-anchor="middle" style="white-space: pre;" direction="ltr" dominant-baseline="alphabetic">I Quadrant</text></g><g stroke-linecap="round" transform="translate(101.56657131491988 374.55938464459393) rotate(0 152.6894614439418 131.9436107042759)"><path d="M32 0 C115.59 -1.32, 191.6 -3.51, 273.38 0 C295.52 -0.25, 308.7 7.16, 305.38 32 C304.24 105.15, 307.66 170.79, 305.38 231.89 C308.78 252.91, 291.76 262.64, 273.38 263.89 C196.58 258.38, 117.04 258.37, 32 263.89 C10.55 263.81, 3.1 255.04, 0 231.89 C-5.95 182.59, -0.28 138.5, 0 32 C2.06 13.1, 12.3 0.77, 32 0" stroke="none" stroke-width="0" fill="#96f2d7"></path><path d="M32 0 C124.68 2.23, 217.74 2.46, 273.38 0 M32 0 C94.15 -1.98, 156.76 -1.65, 273.38 0 M273.38 0 C294.4 1.46, 303.57 12.64, 305.38 32 M273.38 0 C296.67 0.47, 306.84 9.91, 305.38 32 M305.38 32 C304.56 94.73, 304.48 155.38, 305.38 231.89 M305.38 32 C306.05 86.53, 305.37 140.22, 305.38 231.89 M305.38 231.89 C304.88 251.29, 292.79 264.19, 273.38 263.89 M305.38 231.89 C307.26 253.4, 292.87 263.65, 273.38 263.89 M273.38 263.89 C204.47 263.09, 134.39 263.99, 32 263.89 M273.38 263.89 C196.98 261.87, 119.9 262.83, 32 263.89 M32 263.89 C10.31 262.38, -1.5 253.74, 0 231.89 M32 263.89 C9.08 265.17, -0.34 254.14, 0 231.89 M0 231.89 C0.49 158.62, -2.24 83.4, 0 32 M0 231.89 C-1.08 185.63, -0.3 138.15, 0 32 M0 32 C0.59 10.48, 11.11 -0.31, 32 0 M0 32 C1.83 10.63, 10.1 0.17, 32 0" stroke="#1e1e1e" stroke-width="2" fill="none"></path></g><g transform="translate(183.9435327588617 494.50299534886983) rotate(0 70.3125 12)"><text x="70.3125" y="19.3125" font-family="Cascadia, Segoe UI Emoji" font-size="20px" fill="#1e1e1e" text-anchor="middle" style="white-space: pre;" direction="ltr" dominant-baseline="alphabetic">III Quadrant</text></g><g stroke-linecap="round" transform="translate(438.5841664394982 376.21905270376703) rotate(0 152.6894614439418 131.9436107042759)"><path d="M32 0 C95.14 -2.22, 164.36 -0.07, 273.38 0 C291.61 2.11, 302.07 9.51, 305.38 32 C307.1 108.06, 301.38 182.89, 305.38 231.89 C307.75 250.7, 295.23 267.32, 273.38 263.89 C188.91 260.32, 100.44 260.49, 32 263.89 C11.34 262.37, -3.54 255.67, 0 231.89 C-0.52 189.04, -2.77 139.14, 0 32 C-1.21 7.44, 7.68 0.16, 32 0" stroke="none" stroke-width="0" fill="#b2f2bb"></path><path d="M32 0 C97.84 0.08, 166.56 -2.85, 273.38 0 M32 0 C95.38 0.05, 159.35 -0.51, 273.38 0 M273.38 0 C292.94 -0.07, 305.34 12.39, 305.38 32 M273.38 0 C295.87 -1.45, 307.48 9.13, 305.38 32 M305.38 32 C304.98 78.34, 305.64 123.3, 305.38 231.89 M305.38 32 C304.5 95.46, 305.31 160.18, 305.38 231.89 M305.38 231.89 C306.59 254.24, 295.01 265.04, 273.38 263.89 M305.38 231.89 C306.63 251.67, 295.83 261.61, 273.38 263.89 M273.38 263.89 C176.62 264.45, 80.78 263.31, 32 263.89 M273.38 263.89 C182.72 266.07, 93.47 264.81, 32 263.89 M32 263.89 C9.46 263.97, 1.34 252.24, 0 231.89 M32 263.89 C10.86 265.97, 2.3 251.47, 0 231.89 M0 231.89 C-0.16 161.76, 1.18 89, 0 32 M0 231.89 C-0.07 160.84, 0.83 87.73, 0 32 M0 32 C-1.33 9.74, 11.24 0.97, 32 0 M0 32 C-1.09 9.68, 11.12 -0.25, 32 0" stroke="#1e1e1e" stroke-width="2" fill="none"></path></g><g transform="translate(526.8205028834398 496.1626634080427) rotate(0 64.453125 12)"><text x="64.453125" y="19.3125" font-family="Cascadia, Segoe UI Emoji" font-size="20px" fill="#1e1e1e" text-anchor="middle" style="white-space: pre;" direction="ltr" dominant-baseline="alphabetic">IV Quadrant</text></g><g stroke-linecap="round" transform="translate(408.2401593423367 347.01488138690513) rotate(0 13.882745568799237 10.734081625360204)"><path d="M13.96 0.2 C16.8 0.01, 20.95 0.8, 23.18 2.16 C25.41 3.52, 26.93 5.96, 27.35 8.35 C27.77 10.74, 27.09 14.4, 25.7 16.48 C24.31 18.57, 21.71 20.1, 19.01 20.85 C16.31 21.6, 12.34 21.75, 9.48 20.97 C6.61 20.2, 3.32 18.24, 1.81 16.21 C0.3 14.18, -0.2 11.1, 0.39 8.8 C0.98 6.49, 3.1 3.93, 5.34 2.38 C7.57 0.84, 12.28 -0.18, 13.78 -0.49 C15.27 -0.81, 14.17 0.19, 14.31 0.5 M11.85 0.59 C14.55 0.12, 18.48 -0.19, 21.01 0.9 C23.54 2, 26.08 4.83, 27.02 7.15 C27.95 9.47, 27.72 12.68, 26.61 14.82 C25.51 16.95, 22.81 18.91, 20.38 19.97 C17.94 21.03, 14.98 21.63, 12 21.17 C9.02 20.72, 4.59 18.96, 2.5 17.24 C0.42 15.51, -0.66 13, -0.49 10.8 C-0.32 8.61, 1.6 5.77, 3.53 4.07 C5.46 2.36, 9.63 1.15, 11.08 0.56 C12.53 -0.03, 11.99 0.32, 12.24 0.53" stroke="none" stroke-width="0" fill="#ffec99"></path><path d="M15.36 0.02 C18.27 0.17, 22.36 1.52, 24.38 3.21 C26.4 4.9, 27.33 7.76, 27.47 10.15 C27.61 12.54, 26.95 15.62, 25.24 17.54 C23.52 19.46, 20.16 21.26, 17.17 21.65 C14.18 22.05, 9.96 20.97, 7.29 19.91 C4.62 18.86, 2.2 17.42, 1.13 15.33 C0.06 13.24, -0.04 9.71, 0.86 7.39 C1.76 5.07, 4.03 2.63, 6.54 1.41 C9.04 0.2, 14.21 0.25, 15.88 0.12 C17.55 -0.01, 16.63 0.43, 16.55 0.63 M17.08 0.1 C20.01 0.62, 23.57 2.99, 25.23 4.74 C26.89 6.48, 27.27 8.46, 27.06 10.56 C26.84 12.67, 25.74 15.65, 23.96 17.37 C22.18 19.08, 19.24 20.34, 16.38 20.85 C13.53 21.36, 9.37 21.65, 6.82 20.43 C4.26 19.21, 2.02 15.92, 1.03 13.52 C0.04 11.11, -0.22 8, 0.87 6 C1.96 4, 4.93 2.5, 7.55 1.52 C10.16 0.54, 14.97 0.3, 16.56 0.14 C18.15 -0.03, 17.09 0.33, 17.09 0.52" stroke="#1e1e1e" stroke-width="2" fill="none"></path></g><g transform="translate(445.4012480548831 344.7807442048851) rotate(0 35.15625 12)"><text x="0" y="19.3125" font-family="Cascadia, Segoe UI Emoji" font-size="20px" fill="#1e1e1e" text-anchor="start" style="white-space: pre;" direction="ltr" dominant-baseline="alphabetic">Center</text></g><g stroke-linecap="round"><g transform="translate(389.33138917747374 340.45179970741185) rotate(0 -167.64718595384113 1.019131829506705)"><path d="M-0.49 0.56 C-56.27 0.83, -278.68 2.23, -334.67 2.44 M1.46 -0.2 C-54.44 -0.36, -279.36 -0.01, -335.29 0.53" stroke="#1e1e1e" stroke-width="2" fill="none"></path></g><g transform="translate(389.33138917747374 340.45179970741185) rotate(0 -167.64718595384113 1.019131829506705)"><path d="M-311.84 -8.13 C-317.97 -4.56, -325.34 -4.89, -335.29 0.53 M-311.84 -8.13 C-318 -5, -324.2 -2.47, -335.29 0.53" stroke="#1e1e1e" stroke-width="2" fill="none"></path></g><g transform="translate(389.33138917747374 340.45179970741185) rotate(0 -167.64718595384113 1.019131829506705)"><path d="M-311.76 8.97 C-318.03 7.35, -325.42 1.83, -335.29 0.53 M-311.76 8.97 C-317.78 7.26, -324 4.96, -335.29 0.53" stroke="#1e1e1e" stroke-width="2" fill="none"></path></g></g><mask></mask><g stroke-linecap="round" transform="translate(386.66537445465565 324.4037917540103) rotate(0 13.882745568799237 10.73408162536009)"><path d="M12.33 0.38 C15.1 0, 19.3 0.67, 21.7 1.89 C24.1 3.1, 25.84 5.46, 26.72 7.66 C27.6 9.87, 28.01 12.95, 26.98 15.13 C25.95 17.31, 23.27 19.74, 20.55 20.72 C17.82 21.7, 13.49 21.64, 10.63 21.03 C7.76 20.42, 5.05 18.9, 3.35 17.06 C1.64 15.22, 0.38 12.28, 0.41 10 C0.44 7.72, 1.63 5.03, 3.53 3.37 C5.42 1.72, 10.28 0.53, 11.77 0.07 C13.27 -0.38, 12.38 0.43, 12.49 0.66 M12.73 -0.66 C15.44 -1.21, 19.01 -0.33, 21.55 1.15 C24.1 2.63, 27.09 5.77, 27.98 8.22 C28.87 10.68, 28.16 13.88, 26.88 15.88 C25.61 17.87, 23.14 19.4, 20.33 20.21 C17.51 21.02, 12.96 21.21, 9.99 20.75 C7.02 20.29, 4.17 19.18, 2.51 17.44 C0.85 15.69, -0.18 12.64, 0.02 10.3 C0.22 7.96, 1.75 5.15, 3.73 3.4 C5.72 1.65, 10.48 0.31, 11.94 -0.19 C13.4 -0.69, 12.32 0.22, 12.51 0.4" stroke="none" stroke-width="0" fill="#ffffff"></path><path d="M11.22 -0.06 C14.06 -0.56, 18.62 0.01, 21.29 1.14 C23.96 2.27, 26.26 4.45, 27.23 6.7 C28.19 8.94, 28.18 12.48, 27.08 14.62 C25.98 16.76, 23.29 18.5, 20.64 19.54 C18 20.58, 14.08 21.11, 11.2 20.86 C8.32 20.6, 5.27 19.77, 3.37 18.02 C1.46 16.26, -0.24 12.63, -0.22 10.34 C-0.21 8.04, 1.33 5.93, 3.45 4.26 C5.56 2.59, 10.95 1.05, 12.46 0.31 C13.98 -0.43, 12.53 -0.28, 12.55 -0.18 M10.02 0.22 C12.62 -0.54, 16.72 -0.45, 19.38 0.47 C22.04 1.4, 24.58 3.65, 26.01 5.78 C27.44 7.9, 28.56 10.96, 27.96 13.21 C27.35 15.46, 24.83 17.97, 22.36 19.28 C19.89 20.59, 16.1 21.3, 13.14 21.07 C10.18 20.83, 6.88 19.53, 4.6 17.87 C2.32 16.21, -0.15 13.43, -0.52 11.12 C-0.88 8.8, 0.64 5.67, 2.42 3.98 C4.2 2.28, 8.72 1.6, 10.16 0.95 C11.61 0.3, 11 0, 11.09 0.06" stroke="transparent" stroke-width="2" fill="none"></path></g><g transform="translate(389.7621830638825 340.9124240087948) rotate(0 5.947396072972424 -6.970603999505329)" stroke="none"><path fill="#1e1e1e" d="M -1.96,1.43 Q -1.96,1.43 -2.30,1.05 -2.63,0.67 -3.21,-0.55 -3.79,-1.77 -3.91,-2.88 -4.03,-3.99 -3.71,-5.44 -3.40,-6.88 -2.83,-8.39 -2.27,-9.90 -1.53,-10.74 -0.79,-11.57 -0.00,-12.42 0.78,-13.27 2.10,-14.12 3.42,-14.98 4.46,-15.33 5.50,-15.69 6.69,-16.21 7.88,-16.73 10.46,-17.17 13.04,-17.62 13.63,-17.52 14.22,-17.43 14.74,-17.15 15.27,-16.87 15.68,-16.44 16.09,-16.00 16.34,-15.46 16.59,-14.92 16.66,-14.33 16.72,-13.74 16.59,-13.16 16.46,-12.57 16.16,-12.06 15.85,-11.55 15.39,-11.17 14.94,-10.78 14.39,-10.56 13.83,-10.34 13.24,-10.31 12.64,-10.27 12.07,-10.43 11.49,-10.59 11.00,-10.93 10.51,-11.26 10.15,-11.74 9.79,-12.21 9.60,-12.78 9.41,-13.34 9.41,-13.94 9.41,-14.53 9.60,-15.10 9.79,-15.66 10.15,-16.14 10.51,-16.61 11.00,-16.95 11.49,-17.28 12.07,-17.44 12.64,-17.60 13.24,-17.57 13.83,-17.53 14.39,-17.31 14.94,-17.09 15.39,-16.71 15.85,-16.32 16.16,-15.81 16.46,-15.30 16.59,-14.72 16.72,-14.14 16.66,-13.54 16.59,-12.95 16.34,-12.41 16.09,-11.87 15.68,-11.44 15.27,-11.00 14.74,-10.72 14.22,-10.44 13.63,-10.35 13.04,-10.25 13.04,-10.25 13.04,-10.25 11.41,-10.09 9.77,-9.92 8.34,-9.50 6.91,-9.07 5.98,-8.55 5.05,-8.03 4.05,-7.51 3.06,-6.99 2.42,-5.74 1.78,-4.50 1.62,-3.39 1.45,-2.29 1.71,-1.86 1.96,-1.43 2.11,-1.17 2.25,-0.91 2.33,-0.63 2.40,-0.35 2.41,-0.05 2.42,0.23 2.35,0.52 2.29,0.80 2.16,1.06 2.03,1.33 1.84,1.55 1.65,1.78 1.42,1.95 1.18,2.12 0.91,2.23 0.64,2.34 0.34,2.39 0.05,2.43 -0.23,2.40 -0.52,2.37 -0.80,2.27 -1.07,2.18 -1.32,2.02 -1.56,1.86 -1.76,1.64 -1.96,1.43 -1.96,1.43 L -1.96,1.43 Z"></path></g><g stroke-linecap="round" transform="translate(422.2607192436801 327.3375084308676) rotate(0 13.882745568799237 10.73408162536009)"><path d="M16.84 0.07 C19.56 0.42, 22.81 2.57, 24.62 4.45 C26.43 6.32, 27.85 9.09, 27.71 11.32 C27.56 13.56, 25.7 16.28, 23.75 17.88 C21.79 19.48, 18.94 20.64, 15.97 20.92 C12.99 21.2, 8.46 20.77, 5.89 19.55 C3.32 18.34, 1.36 15.8, 0.54 13.64 C-0.28 11.47, -0.28 8.72, 0.96 6.58 C2.21 4.44, 5.25 1.83, 8.01 0.79 C10.78 -0.25, 15.83 0.4, 17.55 0.33 C19.28 0.27, 18.39 0.22, 18.35 0.4 M12.89 0.44 C15.58 0.01, 18.72 0.85, 21 1.96 C23.27 3.07, 25.63 4.9, 26.54 7.08 C27.45 9.26, 27.67 12.73, 26.47 15.04 C25.27 17.34, 21.97 19.9, 19.36 20.93 C16.74 21.95, 13.47 21.7, 10.8 21.17 C8.13 20.63, 5.15 19.57, 3.34 17.72 C1.52 15.88, -0.2 12.47, -0.11 10.11 C-0.02 7.75, 1.84 5.36, 3.88 3.56 C5.92 1.77, 10.65 -0.2, 12.15 -0.66 C13.66 -1.12, 12.88 0.53, 12.94 0.81" stroke="none" stroke-width="0" fill="#ffffff"></path><path d="M11.73 0.03 C14.52 -0.46, 18.15 0.46, 20.66 1.68 C23.17 2.9, 25.74 5.2, 26.76 7.34 C27.79 9.49, 27.83 12.47, 26.82 14.54 C25.8 16.61, 23.17 18.64, 20.67 19.76 C18.17 20.88, 14.74 21.55, 11.82 21.26 C8.9 20.97, 5.05 19.7, 3.16 18.04 C1.26 16.39, 0.37 13.75, 0.45 11.33 C0.52 8.91, 1.68 5.45, 3.59 3.52 C5.5 1.6, 10.51 0.28, 11.92 -0.22 C13.33 -0.72, 12.03 0.37, 12.07 0.53 M12.31 -0.59 C14.96 -1, 18.81 0.54, 21.36 2 C23.91 3.46, 26.82 6.06, 27.62 8.18 C28.42 10.3, 27.41 12.78, 26.17 14.72 C24.93 16.66, 22.91 18.77, 20.18 19.83 C17.45 20.9, 12.66 21.63, 9.81 21.12 C6.96 20.61, 4.75 18.7, 3.08 16.78 C1.41 14.85, -0.31 11.86, -0.2 9.56 C-0.09 7.26, 1.61 4.48, 3.73 2.97 C5.85 1.46, 11.02 1.06, 12.52 0.5 C14.02 -0.06, 12.74 -0.42, 12.75 -0.37" stroke="#ffffff" stroke-width="2" fill="none"></path></g><g transform="translate(447.3540994291134 339.21405687067215) rotate(0 -2.832212326387207 -8.04348300694005)" stroke="none"><path fill="#1e1e1e" d="M -1.99,-1.44 Q -1.99,-1.44 -1.15,-2.61 -0.30,-3.78 0.25,-4.79 0.81,-5.80 0.59,-6.98 0.37,-8.16 -0.59,-8.62 -1.57,-9.07 -2.65,-9.52 -3.74,-9.97 -4.93,-10.94 -6.13,-11.92 -8.09,-12.26 -10.06,-12.60 -10.59,-12.85 -11.12,-13.10 -11.54,-13.51 -11.96,-13.92 -12.23,-14.44 -12.50,-14.96 -12.59,-15.54 -12.68,-16.12 -12.58,-16.69 -12.48,-17.27 -12.20,-17.79 -11.92,-18.30 -11.49,-18.70 -11.06,-19.10 -10.53,-19.34 -10.00,-19.58 -9.41,-19.64 -8.83,-19.70 -8.26,-19.57 -7.69,-19.44 -7.19,-19.13 -6.69,-18.82 -6.31,-18.37 -5.94,-17.92 -5.72,-17.37 -5.51,-16.83 -5.49,-16.24 -5.46,-15.66 -5.62,-15.09 -5.78,-14.53 -6.12,-14.05 -6.45,-13.57 -6.92,-13.22 -7.39,-12.86 -7.95,-12.68 -8.51,-12.50 -9.09,-12.51 -9.68,-12.51 -10.23,-12.70 -10.79,-12.90 -11.25,-13.26 -11.71,-13.61 -12.04,-14.10 -12.36,-14.59 -12.51,-15.16 -12.66,-15.72 -12.63,-16.31 -12.59,-16.89 -12.37,-17.44 -12.15,-17.98 -11.76,-18.42 -11.38,-18.87 -10.87,-19.16 -10.37,-19.46 -9.79,-19.58 -9.22,-19.70 -8.64,-19.63 -8.06,-19.56 -8.06,-19.56 -8.06,-19.56 -6.88,-19.15 -5.71,-18.74 -4.61,-18.23 -3.51,-17.72 -2.51,-17.17 -1.50,-16.63 -0.56,-15.92 0.37,-15.22 1.17,-14.47 1.97,-13.72 3.09,-12.93 4.20,-12.13 4.98,-11.23 5.76,-10.32 6.05,-8.76 6.34,-7.20 6.24,-6.09 6.13,-4.98 5.66,-3.86 5.19,-2.74 4.44,-1.82 3.69,-0.90 2.84,0.26 1.99,1.44 1.79,1.66 1.59,1.87 1.34,2.04 1.09,2.20 0.81,2.30 0.53,2.40 0.24,2.43 -0.05,2.46 -0.34,2.42 -0.64,2.37 -0.91,2.26 -1.19,2.15 -1.43,1.98 -1.67,1.80 -1.86,1.58 -2.05,1.35 -2.19,1.09 -2.32,0.82 -2.38,0.53 -2.45,0.24 -2.44,-0.05 -2.43,-0.34 -2.36,-0.63 -2.28,-0.92 -2.14,-1.18 -1.99,-1.44 -1.99,-1.44 L -1.99,-1.44 Z"></path></g><g stroke-linecap="round" transform="translate(431.43255829922987 368.53725425021923) rotate(0 13.882745568799237 10.734081625360204)"><path d="M13.04 0.11 C15.75 -0.32, 19.03 0.48, 21.45 1.82 C23.88 3.16, 26.71 5.91, 27.59 8.15 C28.47 10.38, 28 13.18, 26.73 15.24 C25.46 17.3, 22.74 19.56, 19.98 20.51 C17.21 21.46, 12.99 21.62, 10.13 20.95 C7.27 20.28, 4.43 18.35, 2.8 16.49 C1.16 14.63, 0.18 11.94, 0.33 9.8 C0.48 7.65, 1.54 5.26, 3.7 3.6 C5.86 1.93, 11.7 0.3, 13.29 -0.2 C14.88 -0.7, 13.3 0.4, 13.24 0.61 M12.73 0.35 C15.65 0.14, 19.64 0.96, 22.02 2.24 C24.4 3.51, 26.19 5.95, 27.01 8 C27.84 10.05, 28.2 12.59, 26.97 14.53 C25.74 16.46, 22.4 18.59, 19.62 19.6 C16.84 20.61, 13.13 20.86, 10.31 20.58 C7.49 20.3, 4.42 19.53, 2.67 17.92 C0.93 16.31, -0.34 13.29, -0.15 10.9 C0.05 8.51, 1.79 5.34, 3.82 3.59 C5.86 1.84, 10.75 0.84, 12.08 0.39 C13.4 -0.07, 11.84 0.69, 11.79 0.88" stroke="none" stroke-width="0" fill="#ffffff"></path><path d="M15.67 -0.02 C18.55 0.14, 22.56 2.08, 24.58 3.86 C26.6 5.65, 27.7 8.51, 27.8 10.69 C27.9 12.87, 26.94 15.2, 25.17 16.95 C23.39 18.71, 20.13 20.65, 17.14 21.24 C14.15 21.83, 9.95 21.52, 7.22 20.48 C4.48 19.43, 1.8 17.24, 0.74 14.99 C-0.32 12.74, -0.14 9.22, 0.85 6.99 C1.84 4.75, 4.09 2.74, 6.68 1.59 C9.27 0.43, 14.46 0.13, 16.37 0.05 C18.27 -0.03, 18.08 0.94, 18.12 1.11 M16.53 0.68 C19.53 0.96, 23.27 1.92, 25.07 3.63 C26.87 5.34, 27.36 8.55, 27.33 10.94 C27.31 13.34, 26.9 16.27, 24.93 17.99 C22.97 19.72, 18.45 20.94, 15.52 21.29 C12.6 21.63, 9.86 21.13, 7.38 20.05 C4.91 18.98, 1.79 16.97, 0.67 14.85 C-0.45 12.73, -0.4 9.58, 0.66 7.34 C1.71 5.09, 4.27 2.61, 7 1.38 C9.73 0.16, 15.38 0.24, 17.03 0 C18.68 -0.24, 16.98 -0.22, 16.9 -0.05" stroke="transparent" stroke-width="2" fill="none"></path></g><g stroke-linecap="round"><g transform="translate(458.4720826085759 378.09938958541113) rotate(0 162.3601332253827 0)"><path d="M0.6 0.34 C54.72 0.47, 269.86 1.1, 323.97 1.06 M-0.55 -0.53 C54.03 -0.74, 272.07 -0.85, 326.29 -0.5" stroke="#1e1e1e" stroke-width="1" fill="none"></path></g><g transform="translate(458.4720826085759 378.09938958541113) rotate(0 162.3601332253827 0)"><path d="M302.78 8 C308.84 4.64, 315.58 4.77, 326.29 -0.5 M302.78 8 C310.13 4.86, 318.19 1.7, 326.29 -0.5" stroke="#1e1e1e" stroke-width="1" fill="none"></path></g><g transform="translate(458.4720826085759 378.09938958541113) rotate(0 162.3601332253827 0)"><path d="M302.82 -9.11 C308.91 -8.45, 315.64 -4.29, 326.29 -0.5 M302.82 -9.11 C310.12 -6.9, 318.16 -4.71, 326.29 -0.5" stroke="#1e1e1e" stroke-width="1" fill="none"></path></g></g><mask></mask><g stroke-linecap="round"><g transform="translate(435.88923765919185 319.32514579103633) rotate(0 -0.5460035931391758 -136.50089828479042)"><path d="M-0.55 0.72 C-1.04 -44.81, -1.99 -227.04, -2.22 -272.64 M1.36 0.05 C1.16 -45.89, 0.04 -229.31, -0.11 -274.57" stroke="#1e1e1e" stroke-width="1" fill="none"></path></g><g transform="translate(435.88923765919185 319.32514579103633) rotate(0 -0.5460035931391758 -136.50089828479042)"><path d="M8.56 -251.12 C6.55 -261.44, 2.86 -269.42, -0.11 -274.57 M8.56 -251.12 C6.14 -259.34, 2.8 -265.21, -0.11 -274.57" stroke="#1e1e1e" stroke-width="1" fill="none"></path></g><g transform="translate(435.88923765919185 319.32514579103633) rotate(0 -0.5460035931391758 -136.50089828479042)"><path d="M-8.54 -251.03 C-4.42 -261.31, -1.99 -269.32, -0.11 -274.57 M-8.54 -251.03 C-5.67 -259.25, -3.72 -265.15, -0.11 -274.57" stroke="#1e1e1e" stroke-width="1" fill="none"></path></g></g><mask></mask><g stroke-linecap="round" transform="translate(382.6624931517101 367.02907045787003) rotate(0 13.882745568799237 10.73408162536009)"><path d="M11.09 0.23 C13.73 -0.33, 17.71 0.07, 20.4 1.23 C23.09 2.39, 26.07 5.04, 27.23 7.2 C28.38 9.36, 28.29 12.09, 27.33 14.19 C26.38 16.29, 24.09 18.53, 21.49 19.79 C18.9 21.06, 14.7 22.09, 11.76 21.78 C8.82 21.47, 5.76 19.66, 3.87 17.92 C1.97 16.18, 0.59 13.61, 0.39 11.35 C0.19 9.1, 0.71 6.29, 2.64 4.38 C4.58 2.47, 10.25 0.63, 12 -0.11 C13.76 -0.85, 13.11 -0.3, 13.17 -0.06 M9.88 0.01 C12.6 -0.51, 17.66 0.76, 20.46 1.78 C23.26 2.79, 25.46 4.21, 26.68 6.1 C27.89 7.99, 28.66 10.83, 27.76 13.11 C26.85 15.4, 23.71 18.34, 21.23 19.8 C18.75 21.26, 15.81 22.24, 12.87 21.89 C9.93 21.55, 5.71 19.39, 3.59 17.73 C1.47 16.06, 0.26 14.25, 0.16 11.92 C0.06 9.58, 1.26 5.56, 2.99 3.71 C4.72 1.87, 9.26 1.39, 10.55 0.83 C11.84 0.28, 10.56 0.33, 10.71 0.38" stroke="none" stroke-width="0" fill="#ffffff"></path><path d="M14.26 -0.24 C16.97 -0.35, 20.6 0.94, 22.82 2.44 C25.05 3.94, 27.14 6.5, 27.62 8.76 C28.09 11.02, 27.18 13.92, 25.67 16 C24.16 18.07, 21.31 20.4, 18.53 21.2 C15.75 22, 11.89 21.64, 9.01 20.79 C6.14 19.94, 2.79 18.18, 1.27 16.12 C-0.24 14.06, -0.73 10.73, -0.07 8.45 C0.59 6.17, 2.8 3.91, 5.23 2.42 C7.66 0.94, 12.81 -0.18, 14.52 -0.46 C16.24 -0.74, 15.46 0.44, 15.51 0.76 M16.28 0.35 C19.17 0.57, 23.24 2.43, 25.12 4.16 C27 5.88, 27.78 8.47, 27.56 10.7 C27.35 12.93, 25.64 15.65, 23.84 17.53 C22.04 19.4, 19.51 21.56, 16.77 21.95 C14.03 22.34, 10.06 21, 7.38 19.85 C4.69 18.69, 1.66 17.12, 0.65 15.02 C-0.35 12.92, 0.34 9.57, 1.34 7.24 C2.34 4.91, 4.19 2.26, 6.65 1.04 C9.11 -0.17, 14.61 0.15, 16.11 -0.05 C17.61 -0.26, 15.64 -0.38, 15.65 -0.18" stroke="#ffffff" stroke-width="2" fill="none"></path></g><g stroke-linecap="round"><g transform="translate(407.9747802182278 385.2786276834519) rotate(0 -0.18637604788511908 150.72005715665296)"><path d="M-0.09 0.6 C-0.24 50.54, -0.01 250.48, -0.11 300.61 M-1.59 -0.13 C-1.95 49.86, -0.92 251.25, -0.92 301.7" stroke="#1e1e1e" stroke-width="1" fill="none"></path></g><g transform="translate(407.9747802182278 385.2786276834519) rotate(0 -0.18637604788511908 150.72005715665296)"><path d="M-9.54 278.24 C-5.17 287.34, -4.38 295.03, -0.92 301.7 M-9.54 278.24 C-7 284.16, -5.75 290.93, -0.92 301.7" stroke="#1e1e1e" stroke-width="1" fill="none"></path></g><g transform="translate(407.9747802182278 385.2786276834519) rotate(0 -0.18637604788511908 150.72005715665296)"><path d="M7.56 278.19 C5.62 287.3, 0.09 295, -0.92 301.7 M7.56 278.19 C5.12 284.07, 1.41 290.86, -0.92 301.7" stroke="#1e1e1e" stroke-width="1" fill="none"></path></g></g><mask></mask><g transform="translate(381.93398026189857 373.7889976433795) rotate(0 12.326060112938876 7.483679354284391)" stroke="none"><path fill="#1e1e1e" d="M 2.48,0.35 Q 2.48,0.35 2.44,0.95 2.40,1.54 2.49,2.80 2.58,4.05 3.69,4.67 4.81,5.28 5.83,6.38 6.85,7.47 7.63,8.28 8.41,9.09 9.53,9.58 10.66,10.06 11.80,10.16 12.93,10.26 13.94,10.81 14.96,11.36 16.12,11.30 17.28,11.25 18.41,11.24 19.53,11.23 20.81,11.14 22.08,11.05 22.55,10.66 23.01,10.27 23.58,10.05 24.14,9.82 24.75,9.79 25.36,9.76 25.94,9.92 26.53,10.09 27.03,10.43 27.53,10.77 27.90,11.26 28.27,11.74 28.46,12.32 28.65,12.90 28.65,13.51 28.65,14.11 28.45,14.69 28.26,15.27 27.89,15.75 27.52,16.23 27.01,16.57 26.51,16.91 25.92,17.07 25.34,17.23 24.73,17.20 24.12,17.16 23.56,16.94 22.99,16.71 22.53,16.31 22.07,15.92 21.76,15.40 21.45,14.87 21.32,14.28 21.19,13.69 21.26,13.08 21.32,12.48 21.58,11.93 21.84,11.38 22.26,10.94 22.68,10.50 23.21,10.21 23.75,9.93 24.35,9.83 24.95,9.74 25.55,9.84 26.15,9.94 26.69,10.22 27.22,10.51 27.64,10.95 28.06,11.40 28.31,11.95 28.56,12.50 28.63,13.11 28.69,13.71 28.56,14.30 28.43,14.90 28.11,15.42 27.80,15.94 27.80,15.94 27.80,15.94 25.77,16.97 23.75,18.00 22.31,18.35 20.87,18.71 19.65,18.69 18.42,18.68 17.27,18.62 16.12,18.57 14.87,18.39 13.62,18.20 12.08,17.63 10.54,17.06 9.50,16.81 8.46,16.56 7.52,15.97 6.57,15.39 5.18,14.57 3.79,13.75 2.93,12.72 2.08,11.70 1.48,10.74 0.89,9.78 -0.06,9.12 -1.02,8.46 -1.88,7.27 -2.74,6.07 -2.91,4.63 -3.09,3.19 -2.91,2.00 -2.74,0.81 -2.61,0.22 -2.48,-0.35 -2.40,-0.64 -2.32,-0.93 -2.18,-1.20 -2.03,-1.46 -1.82,-1.69 -1.62,-1.91 -1.37,-2.08 -1.11,-2.24 -0.83,-2.34 -0.54,-2.44 -0.24,-2.47 0.05,-2.50 0.35,-2.46 0.65,-2.42 0.93,-2.31 1.21,-2.19 1.45,-2.02 1.70,-1.84 1.89,-1.61 2.09,-1.38 2.23,-1.11 2.36,-0.84 2.43,-0.54 2.49,-0.24 2.49,0.05 2.48,0.35 2.48,0.35 L 2.48,0.35 Z"></path></g><g transform="translate(439.8162241858215 387.67327770065697) rotate(0 9.576463497996315 -4.430901021460841)" stroke="none"><path fill="#1e1e1e" d="M 0.31,-2.48 Q 0.31,-2.48 0.97,-2.45 1.63,-2.41 2.70,-2.48 3.77,-2.55 4.86,-2.64 5.94,-2.73 7.20,-3.34 8.46,-3.95 9.61,-4.55 10.77,-5.14 11.80,-5.88 12.82,-6.61 13.76,-7.40 14.69,-8.19 15.52,-9.79 16.35,-11.39 16.79,-11.78 17.22,-12.16 17.75,-12.39 18.28,-12.62 18.86,-12.67 19.44,-12.72 20.00,-12.58 20.56,-12.44 21.05,-12.12 21.54,-11.81 21.91,-11.36 22.27,-10.91 22.47,-10.36 22.67,-9.82 22.68,-9.24 22.70,-8.66 22.53,-8.10 22.36,-7.55 22.02,-7.08 21.68,-6.61 21.21,-6.27 20.74,-5.93 20.19,-5.76 19.63,-5.59 19.05,-5.61 18.47,-5.62 17.93,-5.82 17.38,-6.02 16.93,-6.39 16.48,-6.75 16.17,-7.24 15.85,-7.73 15.71,-8.29 15.57,-8.85 15.62,-9.43 15.67,-10.01 15.90,-10.54 16.13,-11.07 16.52,-11.51 16.90,-11.94 17.41,-12.22 17.91,-12.51 18.48,-12.62 19.05,-12.73 19.63,-12.65 20.20,-12.57 20.72,-12.31 21.24,-12.05 21.65,-11.64 22.06,-11.23 22.32,-10.71 22.58,-10.19 22.65,-9.62 22.73,-9.04 22.62,-8.47 22.51,-7.91 22.23,-7.40 21.94,-6.90 21.94,-6.90 21.94,-6.90 21.36,-5.97 20.77,-5.04 19.79,-3.84 18.80,-2.64 17.70,-1.76 16.59,-0.88 15.58,-0.24 14.57,0.38 13.45,0.83 12.32,1.28 11.20,1.70 10.07,2.12 9.06,2.48 8.04,2.84 6.99,3.07 5.94,3.30 4.66,3.19 3.38,3.08 2.19,2.91 0.99,2.74 0.34,2.61 -0.31,2.48 -0.60,2.41 -0.89,2.33 -1.16,2.19 -1.43,2.05 -1.65,1.85 -1.88,1.65 -2.05,1.40 -2.22,1.15 -2.32,0.87 -2.43,0.59 -2.46,0.29 -2.50,-0.00 -2.46,-0.30 -2.43,-0.60 -2.32,-0.89 -2.21,-1.17 -2.04,-1.42 -1.86,-1.66 -1.64,-1.86 -1.41,-2.06 -1.14,-2.20 -0.87,-2.34 -0.58,-2.41 -0.29,-2.48 0.00,-2.48 0.31,-2.48 0.31,-2.48 L 0.31,-2.48 Z"></path></g><g transform="translate(795.7547404930276 358.0477818361443) rotate(0 11.71875 12)"><text x="0" y="19.3125" font-family="Cascadia, Segoe UI Emoji" font-size="20px" fill="#1e1e1e" text-anchor="start" style="white-space: pre;" direction="ltr" dominant-baseline="alphabetic">+X</text></g><g transform="translate(423.90556123206034 10) rotate(0 11.71875 12)"><text x="0" y="19.3125" font-family="Cascadia, Segoe UI Emoji" font-size="20px" fill="#1e1e1e" text-anchor="start" style="white-space: pre;" direction="ltr" dominant-baseline="alphabetic">+Y</text></g><g transform="translate(394.5736710660094 699.1880672632207) rotate(0 11.71875 12)"><text x="0" y="19.3125" font-family="Cascadia, Segoe UI Emoji" font-size="20px" fill="#1e1e1e" text-anchor="start" style="white-space: pre;" direction="ltr" dominant-baseline="alphabetic">-Y</text></g><g transform="translate(10 331.021242372898) rotate(0 11.71875 12)"><text x="0" y="19.3125" font-family="Cascadia, Segoe UI Emoji" font-size="20px" fill="#1e1e1e" text-anchor="start" style="white-space: pre;" direction="ltr" dominant-baseline="alphabetic">-X</text></g></svg>