<svg version="1.1" xmlns="http://www.w3.org/2000/svg" viewBox="0 0 520.8697778784117 528.9456015523876" width="1041.7395557568234" height="1057.8912031047753">
  <!-- svg-source:excalidraw -->
  
  <defs>
    <style class="style-fonts">
      @font-face {
        font-family: "Virgil";
        src: url("https://excalidraw.com/Virgil.woff2");
      }
      @font-face {
        font-family: "Cascadia";
        src: url("https://excalidraw.com/Cascadia.woff2");
      }
      @font-face {
        font-family: "Assistant";
        src: url("https://excalidraw.com/Assistant-Regular.woff2");
      }
    </style>
    
  </defs>
  <rect x="0" y="0" width="520.8697778784117" height="528.9456015523876" fill="#ffffff"></rect><g stroke-linecap="round"><g transform="translate(257.16672829971503 70.59578599635313) rotate(0 4 224)"><path d="M0.73 0.08 C1.76 74.63, 6.16 373.73, 7.3 448.35 M-0.35 -0.93 C0.97 73.77, 8.49 371.42, 9.64 446.41" stroke="#1e1e1e" stroke-width="2" fill="none"></path></g><g transform="translate(257.16672829971503 70.59578599635313) rotate(0 4 224)"><path d="M0.6 423.1 C4.48 431.04, 8.49 440.61, 9.64 446.41 M0.6 423.1 C3.93 428.77, 5.61 435.78, 9.64 446.41" stroke="#1e1e1e" stroke-width="2" fill="none"></path></g><g transform="translate(257.16672829971503 70.59578599635313) rotate(0 4 224)"><path d="M17.7 422.75 C14.86 430.92, 12.16 440.64, 9.64 446.41 M17.7 422.75 C16.16 428.45, 12.98 435.55, 9.64 446.41" stroke="#1e1e1e" stroke-width="2" fill="none"></path></g></g><mask></mask><g stroke-linecap="round"><g transform="translate(258.16672829971503 81.59578599635313) rotate(0 -1 -30.5)"><path d="M-0.7 0.35 C-1.23 -9.86, -2.26 -50.88, -2.45 -61.19 M1.13 -0.51 C0.34 -10.54, -3.02 -49.76, -3.64 -59.75" stroke="#1e1e1e" stroke-width="2" fill="none"></path></g><g transform="translate(258.16672829971503 81.59578599635313) rotate(0 -1 -30.5)"><path d="M6.65 -36.96 C3.51 -45.99, -1.09 -53.26, -3.64 -59.75 M6.65 -36.96 C3.67 -43.56, 1.75 -49.02, -3.64 -59.75" stroke="#1e1e1e" stroke-width="2" fill="none"></path></g><g transform="translate(258.16672829971503 81.59578599635313) rotate(0 -1 -30.5)"><path d="M-10.4 -35.68 C-7.39 -45.07, -5.85 -52.8, -3.64 -59.75 M-10.4 -35.68 C-8.99 -42.44, -6.52 -48.23, -3.64 -59.75" stroke="#1e1e1e" stroke-width="2" fill="none"></path></g></g><mask></mask><g stroke-linecap="round"><g transform="translate(282.08479809159417 42.0707876666425) rotate(270.4490992851118 4 224)"><path d="M-0.45 -0.19 C1.02 74.34, 6.56 373, 8.12 447.49 M1.51 -1.33 C2.89 73.32, 6.05 373.96, 7.23 448.77" stroke="#1e1e1e" stroke-width="2" fill="none"></path></g><g transform="translate(282.08479809159417 42.0707876666425) rotate(270.4490992851118 4 224)"><path d="M-1.62 425.39 C0.27 431.26, 1.88 438.18, 7.23 448.77 M-1.62 425.39 C0.68 429.92, 2.2 435.11, 7.23 448.77" stroke="#1e1e1e" stroke-width="2" fill="none"></path></g><g transform="translate(282.08479809159417 42.0707876666425) rotate(270.4490992851118 4 224)"><path d="M15.48 425.17 C13.24 431.03, 10.72 438, 7.23 448.77 M15.48 425.17 C14.36 429.64, 12.44 434.87, 7.23 448.77" stroke="#1e1e1e" stroke-width="2" fill="none"></path></g></g><mask></mask><g stroke-linecap="round"><g transform="translate(42.694997468604015 299.5616600921319) rotate(270.4490992851118 -1 -30.5)"><path d="M0.12 -0.51 C0 -10.84, -0.74 -51.99, -1.12 -62.2 M-1.28 -1.82 C-1.43 -12.04, -1.31 -51.45, -1.61 -61.28" stroke="#1e1e1e" stroke-width="2" fill="none"></path></g><g transform="translate(42.694997468604015 299.5616600921319) rotate(270.4490992851118 -1 -30.5)"><path d="M7.21 -37.89 C4.09 -42.56, 0.63 -50.47, -1.61 -61.28 M7.21 -37.89 C5.28 -43.18, 1.96 -49.1, -1.61 -61.28" stroke="#1e1e1e" stroke-width="2" fill="none"></path></g><g transform="translate(42.694997468604015 299.5616600921319) rotate(270.4490992851118 -1 -30.5)"><path d="M-9.89 -37.7 C-8.53 -42.43, -7.5 -50.4, -1.61 -61.28 M-9.89 -37.7 C-7.75 -42.99, -7.01 -48.97, -1.61 -61.28" stroke="#1e1e1e" stroke-width="2" fill="none"></path></g></g><mask></mask><g transform="translate(371.0416825238776 111.11069898640875) rotate(0 1.4933324502678715 0.9955549668452335)" stroke="none"><path fill="#1e1e1e" d="M 4.17,-2.08 Q 4.17,-2.08 4.41,-1.94 4.66,-1.80 4.85,-1.26 5.05,-0.72 5.11,-0.15 5.16,0.41 5.08,0.98 5.00,1.55 4.79,2.08 4.57,2.61 4.24,3.08 3.90,3.55 3.47,3.92 3.03,4.29 2.52,4.55 2.00,4.80 1.44,4.93 0.88,5.06 0.31,5.04 -0.25,5.03 -0.81,4.88 -1.36,4.74 -1.86,4.46 -2.37,4.18 -2.79,3.79 -3.21,3.41 -3.53,2.93 -3.84,2.45 -3.71,2.68 -3.58,2.91 -3.89,2.20 -4.20,1.50 -4.26,0.73 -4.33,-0.03 -4.15,-0.77 -3.97,-1.52 -3.56,-2.17 -3.15,-2.83 -2.55,-3.31 -1.96,-3.80 -1.23,-4.07 -0.51,-4.34 0.25,-4.37 1.02,-4.39 1.75,-4.17 2.49,-3.95 3.12,-3.50 3.75,-3.06 4.20,-2.44 4.65,-1.81 4.89,-1.08 5.12,-0.34 5.10,0.42 5.08,1.19 4.82,1.91 4.56,2.64 4.08,3.24 3.61,3.84 2.96,4.26 2.31,4.68 1.57,4.87 0.82,5.06 0.05,5.00 -0.70,4.95 -1.41,4.65 -2.12,4.35 -2.70,3.84 -3.28,3.33 -3.66,2.66 -4.04,1.99 -4.19,1.23 -4.34,0.48 -4.24,-0.27 -4.14,-1.04 -3.81,-1.73 -3.47,-2.42 -2.93,-2.97 -2.39,-3.52 -1.70,-3.87 -1.01,-4.21 -0.25,-4.32 0.50,-4.43 1.26,-4.29 2.02,-4.15 2.69,-3.77 3.36,-3.40 4.01,-2.60 4.66,-1.80 4.85,-1.26 5.05,-0.72 5.11,-0.15 5.16,0.41 5.08,0.98 5.00,1.55 4.79,2.08 4.57,2.61 4.24,3.08 3.90,3.55 3.47,3.92 3.03,4.29 2.52,4.55 2.00,4.80 1.44,4.93 0.89,5.06 0.31,5.04 -0.25,5.03 -0.81,4.88 -1.36,4.74 -1.86,4.46 -2.37,4.18 -2.79,3.79 -3.21,3.41 -3.53,2.93 -3.84,2.45 -4.00,2.26 -4.17,2.08 -4.36,1.55 -4.54,1.02 -4.60,0.46 -4.66,-0.09 -4.58,-0.64 -4.50,-1.20 -4.29,-1.72 -4.08,-2.24 -3.75,-2.70 -3.42,-3.16 -3.00,-3.52 -2.57,-3.88 -2.07,-4.14 -1.56,-4.39 -1.01,-4.51 -0.47,-4.63 0.09,-4.62 0.65,-4.61 1.19,-4.47 1.73,-4.32 2.23,-4.05 2.72,-3.78 3.13,-3.40 3.55,-3.02 3.86,-2.55 4.17,-2.08 4.17,-2.08 L 4.17,-2.08 Z"></path></g><g transform="translate(349.13947325328263 81.24404998105177) rotate(0 6.669921875 11.5)"><text x="0" y="18.400390625" font-family="Helvetica, Segoe UI Emoji" font-size="20px" fill="#1e1e1e" text-anchor="start" style="white-space: pre;" direction="ltr" dominant-baseline="alphabetic">P</text></g><g transform="translate(479.2659288903842 284.09511337501704) rotate(0 6.669921875 11.5)"><text x="0" y="18.400390625" font-family="Helvetica, Segoe UI Emoji" font-size="20px" fill="#1e1e1e" text-anchor="start" style="white-space: pre;" direction="ltr" dominant-baseline="alphabetic">X</text></g><g transform="translate(278.6966616962791 10) rotate(0 6.669921875 11.5)"><text x="0" y="18.400390625" font-family="Helvetica, Segoe UI Emoji" font-size="20px" fill="#1e1e1e" text-anchor="start" style="white-space: pre;" direction="ltr" dominant-baseline="alphabetic">Y</text></g></svg>