<svg version="1.1" xmlns="http://www.w3.org/2000/svg" viewBox="0 0 521.7938779744335 519.511434006691" width="1043.587755948867" height="1039.022868013382">
  <!-- svg-source:excalidraw -->
  
  <defs>
    <style class="style-fonts">
      @font-face {
        font-family: "Virgil";
        src: url("https://excalidraw.com/Virgil.woff2");
      }
      @font-face {
        font-family: "Cascadia";
        src: url("https://excalidraw.com/Cascadia.woff2");
      }
      @font-face {
        font-family: "Assistant";
        src: url("https://excalidraw.com/Assistant-Regular.woff2");
      }
    </style>
    
  </defs>
  <rect x="0" y="0" width="521.7938779744335" height="519.511434006691" fill="#ffffff"></rect><g stroke-linecap="round"><g transform="translate(257.0730014129118 60.660340991243714) rotate(0 4 224)"><path d="M-0.28 -0.49 C0.82 74.5, 5.88 374.14, 7.25 448.85 M1.78 -1.79 C3.21 72.96, 8.68 372.04, 9.56 447.18" stroke="#1e1e1e" stroke-width="2" fill="none"></path></g><g transform="translate(257.0730014129118 60.660340991243714) rotate(0 4 224)"><path d="M0.65 423.82 C2.78 430.85, 8.17 440.23, 9.56 447.18 M0.65 423.82 C2.96 430.28, 5.96 437.07, 9.56 447.18" stroke="#1e1e1e" stroke-width="2" fill="none"></path></g><g transform="translate(257.0730014129118 60.660340991243714) rotate(0 4 224)"><path d="M17.75 423.55 C13.82 430.64, 13.15 440.12, 9.56 447.18 M17.75 423.55 C15.21 430.21, 13.36 437.08, 9.56 447.18" stroke="#1e1e1e" stroke-width="2" fill="none"></path></g></g><mask></mask><g stroke-linecap="round"><g transform="translate(258.0730014129118 71.66034099124371) rotate(0 -1 -30.5)"><path d="M0.74 0.05 C0.65 -10.4, -0.25 -51.63, -0.86 -61.66 M-0.33 -0.97 C-0.45 -10.75, -1.18 -50.29, -1.21 -60.47" stroke="#1e1e1e" stroke-width="2" fill="none"></path></g><g transform="translate(258.0730014129118 71.66034099124371) rotate(0 -1 -30.5)"><path d="M7.61 -37.08 C5.09 -41.5, 1.5 -51.31, -1.21 -60.47 M7.61 -37.08 C4.66 -46.19, 2.06 -53.57, -1.21 -60.47" stroke="#1e1e1e" stroke-width="2" fill="none"></path></g><g transform="translate(258.0730014129118 71.66034099124371) rotate(0 -1 -30.5)"><path d="M-9.49 -36.88 C-7.35 -41.46, -6.28 -51.32, -1.21 -60.47 M-9.49 -36.88 C-6.11 -46.16, -2.38 -53.62, -1.21 -60.47" stroke="#1e1e1e" stroke-width="2" fill="none"></path></g></g><mask></mask><g stroke-linecap="round"><g transform="translate(281.9910712047912 32.13534266153309) rotate(270.4490992851118 4 224.00000000000003)"><path d="M0.47 -0.95 C1.85 73.56, 6.7 373.52, 7.97 448.16 M-0.74 1.17 C0.5 76.41, 5.66 375.37, 7.01 449.79" stroke="#1e1e1e" stroke-width="2" fill="none"></path></g><g transform="translate(281.9910712047912 32.13534266153309) rotate(270.4490992851118 4 224.00000000000003)"><path d="M-1.95 426.45 C-0.85 432.78, 3.46 439.41, 7.01 449.79 M-1.95 426.45 C0.18 431.43, 1.26 435.81, 7.01 449.79" stroke="#1e1e1e" stroke-width="2" fill="none"></path></g><g transform="translate(281.9910712047912 32.13534266153309) rotate(270.4490992851118 4 224.00000000000003)"><path d="M15.15 426.15 C11.56 432.63, 11.17 439.34, 7.01 449.79 M15.15 426.15 C13.71 431.07, 11.22 435.52, 7.01 449.79" stroke="#1e1e1e" stroke-width="2" fill="none"></path></g></g><mask></mask><g stroke-linecap="round"><g transform="translate(42.60127058180092 289.6262150870224) rotate(270.4490992851118 -1 -30.5)"><path d="M-0.03 0.16 C-0.42 -10.03, -1.68 -51.77, -1.89 -62.1 M-1.5 -0.8 C-2.08 -10.8, -2.76 -51.11, -2.78 -61.13" stroke="#1e1e1e" stroke-width="2" fill="none"></path></g><g transform="translate(42.60127058180092 289.6262150870224) rotate(270.4490992851118 -1 -30.5)"><path d="M6.04 -37.74 C3.5 -45.5, -1.59 -52.39, -2.78 -61.13 M6.04 -37.74 C3.29 -43.6, 1.37 -49.31, -2.78 -61.13" stroke="#1e1e1e" stroke-width="2" fill="none"></path></g><g transform="translate(42.60127058180092 289.6262150870224) rotate(270.4490992851118 -1 -30.5)"><path d="M-11.06 -37.54 C-7.8 -45.36, -7.09 -52.33, -2.78 -61.13 M-11.06 -37.54 C-9.84 -43.46, -7.8 -49.21, -2.78 -61.13" stroke="#1e1e1e" stroke-width="2" fill="none"></path></g></g><mask></mask><g transform="translate(370.94795563707453 101.17525398129933) rotate(0 1.4933324502678715 0.9955549668452335)" stroke="none"><path fill="#1e1e1e" d="M 4.19,-2.09 Q 4.19,-2.09 4.26,-2.13 4.33,-2.16 4.52,-1.61 4.72,-1.06 4.78,-0.48 4.84,0.09 4.75,0.67 4.67,1.25 4.45,1.79 4.24,2.33 3.90,2.80 3.55,3.28 3.11,3.65 2.67,4.03 2.14,4.29 1.62,4.55 1.05,4.68 0.48,4.81 -0.09,4.80 -0.67,4.79 -1.24,4.64 -1.80,4.49 -2.31,4.21 -2.82,3.92 -3.25,3.53 -3.68,3.13 -4.00,2.65 -4.33,2.16 -4.19,2.39 -4.06,2.63 -4.37,1.91 -4.69,1.19 -4.75,0.41 -4.82,-0.36 -4.64,-1.12 -4.45,-1.88 -4.04,-2.54 -3.62,-3.20 -3.01,-3.70 -2.41,-4.19 -1.67,-4.47 -0.94,-4.74 -0.16,-4.77 0.62,-4.80 1.37,-4.57 2.12,-4.35 2.76,-3.89 3.40,-3.44 3.86,-2.81 4.32,-2.17 4.55,-1.43 4.79,-0.68 4.77,0.09 4.76,0.88 4.49,1.61 4.22,2.35 3.74,2.96 3.25,3.58 2.59,4.00 1.94,4.43 1.18,4.62 0.42,4.82 -0.35,4.76 -1.13,4.70 -1.85,4.40 -2.58,4.09 -3.16,3.57 -3.75,3.05 -4.14,2.37 -4.53,1.69 -4.68,0.93 -4.83,0.16 -4.73,-0.61 -4.63,-1.39 -4.29,-2.09 -3.95,-2.79 -3.39,-3.35 -2.84,-3.91 -2.14,-4.26 -1.45,-4.61 -0.67,-4.72 0.10,-4.84 0.87,-4.69 1.64,-4.55 2.32,-4.17 3.00,-3.79 3.66,-2.97 4.33,-2.16 4.52,-1.61 4.72,-1.06 4.78,-0.48 4.84,0.09 4.75,0.67 4.67,1.25 4.45,1.79 4.24,2.33 3.90,2.80 3.56,3.28 3.11,3.65 2.67,4.03 2.14,4.29 1.62,4.55 1.05,4.68 0.48,4.81 -0.09,4.80 -0.67,4.79 -1.24,4.64 -1.80,4.49 -2.31,4.21 -2.82,3.92 -3.25,3.53 -3.68,3.13 -4.00,2.65 -4.33,2.16 -4.26,2.13 -4.19,2.09 -4.38,1.56 -4.57,1.03 -4.63,0.47 -4.69,-0.09 -4.61,-0.65 -4.53,-1.21 -4.32,-1.73 -4.11,-2.26 -3.78,-2.72 -3.44,-3.17 -3.01,-3.54 -2.58,-3.91 -2.08,-4.16 -1.57,-4.41 -1.02,-4.54 -0.47,-4.66 0.09,-4.65 0.65,-4.64 1.20,-4.49 1.74,-4.35 2.24,-4.08 2.74,-3.80 3.15,-3.42 3.57,-3.04 3.88,-2.56 4.19,-2.09 4.19,-2.09 L 4.19,-2.09 Z"></path></g><g transform="translate(349.04574636647953 71.30860497594233) rotate(0 6.669921875 11.5)"><text x="0" y="18.400390625" font-family="Helvetica, Segoe UI Emoji" font-size="20px" fill="#1e1e1e" text-anchor="start" style="white-space: pre;" direction="ltr" dominant-baseline="alphabetic">P</text></g></svg>