<svg version="1.1" xmlns="http://www.w3.org/2000/svg" viewBox="0 0 609.205171403441 588.2853741667765" width="1218.410342806882" height="1176.570748333553">
  <!-- svg-source:excalidraw -->
  
  <defs>
    <style class="style-fonts">
      @font-face {
        font-family: "Virgil";
        src: url("https://excalidraw.com/Virgil.woff2");
      }
      @font-face {
        font-family: "Cascadia";
        src: url("https://excalidraw.com/Cascadia.woff2");
      }
      @font-face {
        font-family: "Assistant";
        src: url("https://excalidraw.com/Assistant-Regular.woff2");
      }
    </style>
    
  </defs>
  <rect x="0" y="0" width="609.205171403441" height="588.2853741667765" fill="#ffffff"></rect><g stroke-linecap="round"><g transform="translate(307.14310716066893 92.86653822720973) rotate(0 3.718737650914079 224.51424628214914)"><path d="M0.49 0.46 C1.94 75.13, 6.91 373.37, 8.15 447.89 M-0.71 -0.34 C0.65 74.54, 5.97 374.54, 7.28 449.37" stroke="#1e1e1e" stroke-width="2" fill="none"></path></g><g transform="translate(307.14310716066893 92.86653822720973) rotate(0 3.718737650914079 224.51424628214914)"><path d="M-1.68 426.03 C1.32 432.11, 2.61 437.67, 7.28 449.37 M-1.68 426.03 C0.94 432.88, 3.35 438.42, 7.28 449.37" stroke="#1e1e1e" stroke-width="2" fill="none"></path></g><g transform="translate(307.14310716066893 92.86653822720973) rotate(0 3.718737650914079 224.51424628214914)"><path d="M15.42 425.73 C14.12 431.95, 11.11 437.59, 7.28 449.37 M15.42 425.73 C13.57 432.58, 11.51 438.2, 7.28 449.37" stroke="#1e1e1e" stroke-width="2" fill="none"></path></g></g><mask></mask><g stroke-linecap="round"><g transform="translate(308.14310716066893 103.86653822720973) rotate(0 -1.4245536655653268 -30.787420818582177)"><path d="M0.15 -0.11 C-0.27 -10.43, -1.78 -51.22, -2.03 -61.46 M-1.23 -1.22 C-1.85 -11.42, -2.91 -50.29, -3 -60.17" stroke="#1e1e1e" stroke-width="2" fill="none"></path></g><g transform="translate(308.14310716066893 103.86653822720973) rotate(0 -1.4245536655653268 -30.787420818582177)"><path d="M6.02 -36.85 C2.67 -44.84, -0.99 -51.64, -3 -60.17 M6.02 -36.85 C3.9 -42.58, 1.06 -49.58, -3 -60.17" stroke="#1e1e1e" stroke-width="2" fill="none"></path></g><g transform="translate(308.14310716066893 103.86653822720973) rotate(0 -1.4245536655653268 -30.787420818582177)"><path d="M-11.08 -36.51 C-8.61 -44.64, -6.43 -51.55, -3 -60.17 M-11.08 -36.51 C-8.84 -42.45, -7.33 -49.54, -3 -60.17" stroke="#1e1e1e" stroke-width="2" fill="none"></path></g></g><mask></mask><g stroke-linecap="round"><g transform="translate(332.06117695254807 64.34153989749916) rotate(270.4490992851118 3.571101986868257 223.48050156848507)"><path d="M-0.03 -0.46 C1.38 74.13, 7.28 372.57, 8.65 447.46 M-1.51 -1.75 C-0.21 73.01, 6.54 373.93, 8.05 448.71" stroke="#1e1e1e" stroke-width="2" fill="none"></path></g><g transform="translate(332.06117695254807 64.34153989749916) rotate(270.4490992851118 3.571101986868257 223.48050156848507)"><path d="M-1 425.41 C1.04 433.78, 3.73 440.28, 8.05 448.71 M-1 425.41 C2.07 433.12, 6.14 442.66, 8.05 448.71" stroke="#1e1e1e" stroke-width="2" fill="none"></path></g><g transform="translate(332.06117695254807 64.34153989749916) rotate(270.4490992851118 3.571101986868257 223.48050156848507)"><path d="M16.1 425.04 C12.79 433.53, 10.14 440.14, 8.05 448.71 M16.1 425.04 C12.83 432.92, 10.56 442.59, 8.05 448.71" stroke="#1e1e1e" stroke-width="2" fill="none"></path></g></g><mask></mask><g stroke-linecap="round"><g transform="translate(92.67137632955792 321.8324123229885) rotate(270.4490992851118 -1.0075081429351087 -30.020588770639165)"><path d="M0.65 -0.54 C0.36 -10.49, -1.42 -50.11, -1.82 -60.15 M-0.46 1.79 C-0.9 -8.45, -2.35 -51.63, -2.67 -61.83" stroke="#1e1e1e" stroke-width="2" fill="none"></path></g><g transform="translate(92.67137632955792 321.8324123229885) rotate(270.4490992851118 -1.0075081429351087 -30.020588770639165)"><path d="M6.65 -38.63 C3.07 -45.17, 2.61 -51.94, -2.67 -61.83 M6.65 -38.63 C4.17 -46.03, 0.39 -52.69, -2.67 -61.83" stroke="#1e1e1e" stroke-width="2" fill="none"></path></g><g transform="translate(92.67137632955792 321.8324123229885) rotate(270.4490992851118 -1.0075081429351087 -30.020588770639165)"><path d="M-10.44 -38.07 C-8.95 -44.87, -4.32 -51.8, -2.67 -61.83 M-10.44 -38.07 C-7.54 -45.49, -5.93 -52.32, -2.67 -61.83" stroke="#1e1e1e" stroke-width="2" fill="none"></path></g></g><mask></mask><g stroke-linecap="round" transform="translate(297.422415669193 276.26871782915566) rotate(0 12.341706601751412 12.341706601751298)"><path d="M12.79 -0.15 C15.21 -0.16, 18.53 1.06, 20.55 2.96 C22.58 4.85, 24.61 8.45, 24.93 11.22 C25.24 13.98, 23.98 17.38, 22.43 19.55 C20.87 21.73, 18.15 23.52, 15.61 24.27 C13.07 25.01, 9.53 25.13, 7.2 24.04 C4.87 22.96, 2.7 20.17, 1.61 17.75 C0.53 15.33, 0.07 12.11, 0.7 9.52 C1.34 6.92, 3.25 3.81, 5.43 2.17 C7.61 0.52, 12.29 -0.15, 13.78 -0.37 C15.28 -0.59, 14.42 0.57, 14.41 0.86 M12.97 0.77 C15.29 0.97, 18.5 2.1, 20.5 3.98 C22.51 5.86, 24.73 9.38, 24.98 12.03 C25.23 14.68, 23.68 17.8, 21.99 19.89 C20.3 21.98, 17.23 24.02, 14.82 24.59 C12.4 25.17, 9.86 24.51, 7.47 23.34 C5.09 22.17, 1.63 19.94, 0.5 17.6 C-0.64 15.25, -0.08 11.79, 0.66 9.26 C1.41 6.73, 2.82 3.82, 4.97 2.4 C7.13 0.98, 12.25 1.16, 13.6 0.73 C14.96 0.3, 13.08 -0.35, 13.1 -0.19" stroke="none" stroke-width="0" fill="#ffec99"></path><path d="M10.72 -0.17 C13.22 -0.66, 16.47 0.07, 18.71 1.52 C20.95 2.97, 23.3 6.01, 24.17 8.52 C25.05 11.04, 24.9 14.08, 23.94 16.6 C22.99 19.12, 20.74 22.29, 18.46 23.65 C16.18 25.01, 12.87 25.33, 10.26 24.78 C7.65 24.23, 4.48 22.39, 2.8 20.35 C1.13 18.3, 0.23 15.24, 0.21 12.48 C0.19 9.72, 0.93 5.91, 2.7 3.79 C4.47 1.67, 9.41 0.33, 10.83 -0.22 C12.25 -0.77, 11.23 0.29, 11.21 0.49 M14.82 0.63 C17.17 1.07, 20.09 3.71, 21.8 5.78 C23.52 7.84, 25.14 10.47, 25.1 13.02 C25.05 15.57, 23.53 19.14, 21.54 21.09 C19.54 23.03, 15.74 24.36, 13.11 24.69 C10.48 25.02, 7.86 24.45, 5.75 23.04 C3.65 21.64, 1.17 18.9, 0.5 16.25 C-0.17 13.59, 0.58 9.61, 1.73 7.14 C2.88 4.67, 5.24 2.51, 7.41 1.41 C9.59 0.31, 13.54 0.67, 14.77 0.54 C15.99 0.4, 14.77 0.33, 14.78 0.59" stroke="#1e1e1e" stroke-width="2" fill="none"></path></g><g stroke-linecap="round" transform="translate(83.96146209581684 127.72175333803534) rotate(0 89.7860930039983 27.581203974369657)"><path d="M13.79 0 C46.45 2.23, 83.77 3.43, 165.78 0 C177.97 1.58, 178.95 1.61, 179.57 13.79 C182.2 24.45, 181.34 30.32, 179.57 41.37 C177.06 52, 173.5 56.78, 165.78 55.16 C122.79 54.59, 77.98 52.59, 13.79 55.16 C4.04 58.39, -1.77 47.03, 0 41.37 C3.29 38.12, -2.7 31.62, 0 13.79 C-0.86 1.59, 7.2 -3.6, 13.79 0" stroke="none" stroke-width="0" fill="#a5d8ff"></path><path d="M13.79 0 C53.3 -0.77, 97.49 0.71, 165.78 0 M13.79 0 C69.14 0.27, 123.82 0.74, 165.78 0 M165.78 0 C173.69 1.45, 177.92 4.67, 179.57 13.79 M165.78 0 C173.17 -0.27, 178.41 4.41, 179.57 13.79 M179.57 13.79 C178.52 24.78, 178.88 31.65, 179.57 41.37 M179.57 13.79 C179.39 23.09, 179.47 32.93, 179.57 41.37 M179.57 41.37 C179.05 49.51, 176.62 56.52, 165.78 55.16 M179.57 41.37 C177.93 52.22, 176.05 55.9, 165.78 55.16 M165.78 55.16 C127.74 58.1, 87.92 56.63, 13.79 55.16 M165.78 55.16 C117.08 52.98, 67.22 54.25, 13.79 55.16 M13.79 55.16 C3.78 53.33, 0.19 48.64, 0 41.37 M13.79 55.16 C3.52 56.35, -0.6 52.09, 0 41.37 M0 41.37 C1.68 29.2, -0.13 21.97, 0 13.79 M0 41.37 C0.61 30.9, -0.14 19.53, 0 13.79 M0 13.79 C-1.03 5.34, 5.76 -1.65, 13.79 0 M0 13.79 C0.65 5.48, 2.47 -0.3, 13.79 0" stroke="#1e1e1e" stroke-width="2" fill="none"></path></g><g transform="translate(109.29443009981514 143.30295731240506) rotate(0 64.453125 12)"><text x="64.453125" y="19.3125" font-family="Cascadia, Segoe UI Emoji" font-size="20px" fill="#1e1e1e" text-anchor="middle" style="white-space: pre;" direction="ltr" dominant-baseline="alphabetic">II Quadrant</text></g><g stroke-linecap="round" transform="translate(357.01926600557135 123.43288730803931) rotate(0 89.7860930039983 27.581203974369657)"><path d="M13.79 0 C69.31 3.16, 128.17 5.12, 165.78 0 C171.81 -1.31, 182.6 4.59, 179.57 13.79 C178.49 18.12, 183.12 26.53, 179.57 41.37 C178.21 53.2, 175.47 51.58, 165.78 55.16 C111.88 55.49, 57.53 55.87, 13.79 55.16 C5.77 55.04, -1.21 50.49, 0 41.37 C-1.26 31.69, 3.51 27.7, 0 13.79 C-1.41 4.01, 5.99 0.02, 13.79 0" stroke="none" stroke-width="0" fill="#fcc2d7"></path><path d="M13.79 0 C49.15 2.47, 86.14 2.57, 165.78 0 M13.79 0 C52.19 0.5, 89.96 -0.32, 165.78 0 M165.78 0 C174.02 1.1, 179.81 3.71, 179.57 13.79 M165.78 0 C176.2 1.59, 181.12 5.87, 179.57 13.79 M179.57 13.79 C178.82 21.74, 181.43 31.75, 179.57 41.37 M179.57 13.79 C179.6 24.14, 178.68 33.41, 179.57 41.37 M179.57 41.37 C179.17 50.21, 175.06 56.18, 165.78 55.16 M179.57 41.37 C181.14 50.13, 173.78 53.7, 165.78 55.16 M165.78 55.16 C111.66 54.57, 54.47 53.98, 13.79 55.16 M165.78 55.16 C106.09 54.03, 47.33 53.67, 13.79 55.16 M13.79 55.16 C3.72 56.76, -1.09 49.31, 0 41.37 M13.79 55.16 C3.61 55.4, -0.72 50.56, 0 41.37 M0 41.37 C-1.36 33.95, 2.03 28.94, 0 13.79 M0 41.37 C0.02 34.38, 0.3 26.69, 0 13.79 M0 13.79 C-1.73 5.19, 4.56 0.87, 13.79 0 M0 13.79 C1.91 4.83, 6.07 -2.24, 13.79 0" stroke="#1e1e1e" stroke-width="2" fill="none"></path></g><g transform="translate(388.21160900956966 139.0140912824089) rotate(0 58.59375 12)"><text x="58.59375" y="19.3125" font-family="Cascadia, Segoe UI Emoji" font-size="20px" fill="#1e1e1e" text-anchor="middle" style="white-space: pre;" direction="ltr" dominant-baseline="alphabetic">I Quadrant</text></g><g stroke-linecap="round" transform="translate(372.7451081155582 383.62409312780585) rotate(0 89.7860930039983 27.5812039743696)"><path d="M13.79 0 C49.25 -4.37, 88.25 -4.41, 165.78 0 C172.54 2.18, 180.72 3.94, 179.57 13.79 C177.83 23.98, 179.09 30.77, 179.57 41.37 C177.25 47.55, 177.33 57.4, 165.78 55.16 C132.84 54.21, 99.34 56.31, 13.79 55.16 C5 55.82, 2.39 51.66, 0 41.37 C-2.44 32.43, -1.63 23.97, 0 13.79 C-0.89 2.97, 5.55 -2.29, 13.79 0" stroke="none" stroke-width="0" fill="#b2f2bb"></path><path d="M13.79 0 C55.95 1.09, 98.7 -1.29, 165.78 0 M13.79 0 C53.33 0.9, 93.3 -0.42, 165.78 0 M165.78 0 C173.61 1.72, 179.1 3.84, 179.57 13.79 M165.78 0 C176.66 0.32, 177.29 5.81, 179.57 13.79 M179.57 13.79 C179.57 22.1, 179.79 32.17, 179.57 41.37 M179.57 13.79 C179.45 21.73, 179.38 29.76, 179.57 41.37 M179.57 41.37 C178.75 52.45, 176.5 54.38, 165.78 55.16 M179.57 41.37 C179.2 51.46, 174.99 55.96, 165.78 55.16 M165.78 55.16 C113.12 56.29, 64.43 54.95, 13.79 55.16 M165.78 55.16 C110.94 55.37, 55.85 54.06, 13.79 55.16 M13.79 55.16 C2.83 54.42, 1.36 52.42, 0 41.37 M13.79 55.16 C3.92 57.39, 0.32 52.71, 0 41.37 M0 41.37 C-0.51 32.39, -1.32 24.51, 0 13.79 M0 41.37 C0.69 32.75, 1.04 24.06, 0 13.79 M0 13.79 C1.37 6.34, 4.92 -1.69, 13.79 0 M0 13.79 C-0.88 6.46, 2.5 -1.65, 13.79 0" stroke="#1e1e1e" stroke-width="2" fill="none"></path></g><g transform="translate(398.0780761195565 399.20529710217545) rotate(0 64.453125 12)"><text x="64.453125" y="19.3125" font-family="Cascadia, Segoe UI Emoji" font-size="20px" fill="#1e1e1e" text-anchor="middle" style="white-space: pre;" direction="ltr" dominant-baseline="alphabetic">IV Quadrant</text></g><g stroke-linecap="round" transform="translate(81.10221807581956 385.05371513780426) rotate(0 89.7860930039983 27.581203974369714)"><path d="M13.79 0 C65.62 -0.93, 120.79 -3.92, 165.78 0 C172.66 -3.02, 181.93 6.84, 179.57 13.79 C178.42 18.1, 176.87 26, 179.57 41.37 C179.98 51.23, 177.37 56.26, 165.78 55.16 C108.65 56.33, 54.9 57.77, 13.79 55.16 C3.71 53.54, 0.95 48.27, 0 41.37 C0.04 33.08, -3.04 32, 0 13.79 C-0.79 7.23, 2.93 1.98, 13.79 0" stroke="none" stroke-width="0" fill="#96f2d7"></path><path d="M13.79 0 C71.7 2.37, 131.87 -0.11, 165.78 0 M13.79 0 C71.04 1.73, 127.39 1.43, 165.78 0 M165.78 0 C174.94 -0.56, 179.75 5.25, 179.57 13.79 M165.78 0 C174.89 -0.78, 179.52 4.54, 179.57 13.79 M179.57 13.79 C178.72 23.28, 181.07 28.23, 179.57 41.37 M179.57 13.79 C180.03 21.95, 178.94 29.3, 179.57 41.37 M179.57 41.37 C177.63 51.9, 175.07 55.17, 165.78 55.16 M179.57 41.37 C181.06 49.08, 173.81 56.45, 165.78 55.16 M165.78 55.16 C103.45 53.92, 46.03 56.51, 13.79 55.16 M165.78 55.16 C125.58 55.19, 82.68 54.97, 13.79 55.16 M13.79 55.16 C3.86 53.97, -1.55 49.27, 0 41.37 M13.79 55.16 C5.23 54.81, -0.25 52.06, 0 41.37 M0 41.37 C1.1 33.72, 0.05 20.9, 0 13.79 M0 41.37 C-0.94 33.7, 0.44 27.93, 0 13.79 M0 13.79 C-1.83 3.68, 2.9 -0.94, 13.79 0 M0 13.79 C-1.56 5.99, 5.33 -0.42, 13.79 0" stroke="#1e1e1e" stroke-width="2" fill="none"></path></g><g transform="translate(100.57581107981787 400.63491911217386) rotate(0 70.3125 12)"><text x="70.3125" y="19.3125" font-family="Cascadia, Segoe UI Emoji" font-size="20px" fill="#1e1e1e" text-anchor="middle" style="white-space: pre;" direction="ltr" dominant-baseline="alphabetic">III Quadrant</text></g><g transform="translate(322.66321397469756 253.9722009629437) rotate(0 35.15625 12)"><text x="0" y="19.3125" font-family="Cascadia, Segoe UI Emoji" font-size="20px" fill="#1e1e1e" text-anchor="start" style="white-space: pre;" direction="ltr" dominant-baseline="alphabetic">Center</text></g><g transform="translate(575.767671403441 270.44231184471585) rotate(0 11.71875 12)"><text x="0" y="19.3125" font-family="Cascadia, Segoe UI Emoji" font-size="20px" fill="#1e1e1e" text-anchor="start" style="white-space: pre;" direction="ltr" dominant-baseline="alphabetic">+X</text></g><g transform="translate(293.47075035593355 10) rotate(0 11.71875 12)"><text x="0" y="19.3125" font-family="Cascadia, Segoe UI Emoji" font-size="20px" fill="#1e1e1e" text-anchor="start" style="white-space: pre;" direction="ltr" dominant-baseline="alphabetic">+Y</text></g><g transform="translate(301.1278364084857 554.2853741667765) rotate(0 11.71875 12)"><text x="0" y="19.3125" font-family="Cascadia, Segoe UI Emoji" font-size="20px" fill="#1e1e1e" text-anchor="start" style="white-space: pre;" direction="ltr" dominant-baseline="alphabetic">-Y</text></g><g transform="translate(10 276.51117215600937) rotate(0 11.71875 12)"><text x="0" y="19.3125" font-family="Cascadia, Segoe UI Emoji" font-size="20px" fill="#1e1e1e" text-anchor="start" style="white-space: pre;" direction="ltr" dominant-baseline="alphabetic">-X</text></g></svg>